<?xml version="1.0" encoding="UTF-8" standalone="no"?>
<!-- Created with Inkscape (http://www.inkscape.org/) -->

<svg
   width="171.18933mm"
   height="217.47647mm"
   viewBox="0 0 171.18933 217.47647"
   version="1.1"
   id="svg5"
   inkscape:version="1.1.1 (c3084ef, 2021-09-22)"
   sodipodi:docname="logo.svg"
   xmlns:inkscape="http://www.inkscape.org/namespaces/inkscape"
   xmlns:sodipodi="http://sodipodi.sourceforge.net/DTD/sodipodi-0.dtd"
   xmlns="http://www.w3.org/2000/svg"
   xmlns:svg="http://www.w3.org/2000/svg">
  <sodipodi:namedview
     id="namedview7"
     pagecolor="#ffffff"
     bordercolor="#666666"
     borderopacity="1.0"
     inkscape:pageshadow="2"
     inkscape:pageopacity="0.0"
     inkscape:pagecheckerboard="true"
     inkscape:document-units="mm"
     showgrid="false"
     inkscape:zoom="0.47584683"
     inkscape:cx="353.05478"
     inkscape:cy="609.43981"
     inkscape:window-width="1312"
     inkscape:window-height="942"
     inkscape:window-x="1956"
     inkscape:window-y="65"
     inkscape:window-maximized="0"
     inkscape:current-layer="layer1"
     viewbox-width="209.9"
     fit-margin-top="0"
     fit-margin-left="0"
     fit-margin-right="0"
     fit-margin-bottom="0" />
  <defs
     id="defs2">
    <linearGradient
       id="linearGradient30"
       spreadMethod="pad"
       gradientTransform="matrix(119.60745,0,0,-119.60745,324.83545,530.9826)"
       gradientUnits="userSpaceOnUse"
       y2="0"
       x2="1"
       y1="0"
       x1="0">
      <stop
         id="stop24"
         offset="0"
         style="stop-opacity:1;stop-color:#af4f39" />
      <stop
         id="stop26"
         offset="0.6054"
         style="stop-opacity:1;stop-color:#af4f39" />
      <stop
         id="stop28"
         offset="1"
         style="stop-opacity:1;stop-color:#af4f39" />
    </linearGradient>
    <linearGradient
       id="linearGradient52"
       spreadMethod="pad"
       gradientTransform="matrix(126.62571,0,0,-126.62571,475.19394,530.9826)"
       gradientUnits="userSpaceOnUse"
       y2="0"
       x2="1"
       y1="0"
       x1="0">
      <stop
         id="stop46"
         offset="0"
         style="stop-opacity:1;stop-color:#af4f39" />
      <stop
         id="stop48"
         offset="0.6054"
         style="stop-opacity:1;stop-color:#af4f39" />
      <stop
         id="stop50"
         offset="1"
         style="stop-opacity:1;stop-color:#af4f39" />
    </linearGradient>
    <linearGradient
       id="linearGradient74"
       spreadMethod="pad"
       gradientTransform="matrix(106.46705,0,0,-106.46705,690.65198,530.9826)"
       gradientUnits="userSpaceOnUse"
       y2="0"
       x2="1"
       y1="0"
       x1="0">
      <stop
         id="stop68"
         offset="0"
         style="stop-opacity:1;stop-color:#af4f39" />
      <stop
         id="stop70"
         offset="0.6054"
         style="stop-opacity:1;stop-color:#af4f39" />
      <stop
         id="stop72"
         offset="1"
         style="stop-opacity:1;stop-color:#af4f39" />
    </linearGradient>
    <linearGradient
       id="linearGradient96"
       spreadMethod="pad"
       gradientTransform="matrix(120.05585,0,0,-120.05585,823.98853,530.9826)"
       gradientUnits="userSpaceOnUse"
       y2="0"
       x2="1"
       y1="0"
       x1="0">
      <stop
         id="stop90"
         offset="0"
         style="stop-opacity:1;stop-color:#af4f39" />
      <stop
         id="stop92"
         offset="0.6054"
         style="stop-opacity:1;stop-color:#af4f39" />
      <stop
         id="stop94"
         offset="1"
         style="stop-opacity:1;stop-color:#af4f39" />
    </linearGradient>
    <linearGradient
       id="linearGradient118"
       spreadMethod="pad"
       gradientTransform="matrix(126.178,0,0,-126.178,1095.7363,530.9826)"
       gradientUnits="userSpaceOnUse"
       y2="0"
       x2="1"
       y1="0"
       x1="0">
      <stop
         id="stop112"
         offset="0"
         style="stop-opacity:1;stop-color:#f69635" />
      <stop
         id="stop114"
         offset="0.2703"
         style="stop-opacity:1;stop-color:#f69635" />
      <stop
         id="stop116"
         offset="1"
         style="stop-opacity:1;stop-color:#f69635" />
    </linearGradient>
    <linearGradient
       id="linearGradient140"
       spreadMethod="pad"
       gradientTransform="matrix(110.94691,0,0,-110.94691,1254.0085,530.9826)"
       gradientUnits="userSpaceOnUse"
       y2="0"
       x2="1"
       y1="0"
       x1="0">
      <stop
         id="stop134"
         offset="0"
         style="stop-opacity:1;stop-color:#f69635" />
      <stop
         id="stop136"
         offset="0.2703"
         style="stop-opacity:1;stop-color:#f69635" />
      <stop
         id="stop138"
         offset="1"
         style="stop-opacity:1;stop-color:#f69635" />
    </linearGradient>
    <linearGradient
       id="linearGradient162"
       spreadMethod="pad"
       gradientTransform="matrix(120.54826,0,0,-120.54826,1393.1694,530.9826)"
       gradientUnits="userSpaceOnUse"
       y2="0"
       x2="1"
       y1="0"
       x1="0">
      <stop
         id="stop156"
         offset="0"
         style="stop-opacity:1;stop-color:#f69635" />
      <stop
         id="stop158"
         offset="0.2703"
         style="stop-opacity:1;stop-color:#f69635" />
      <stop
         id="stop160"
         offset="1"
         style="stop-opacity:1;stop-color:#f69635" />
    </linearGradient>
    <linearGradient
       id="linearGradient184"
       spreadMethod="pad"
       gradientTransform="matrix(141.12111,0,0,-141.12111,1534.0435,530.9826)"
       gradientUnits="userSpaceOnUse"
       y2="0"
       x2="1"
       y1="0"
       x1="0">
      <stop
         id="stop178"
         offset="0"
         style="stop-opacity:1;stop-color:#f69635" />
      <stop
         id="stop180"
         offset="0.2703"
         style="stop-opacity:1;stop-color:#f69635" />
      <stop
         id="stop182"
         offset="1"
         style="stop-opacity:1;stop-color:#f69635" />
    </linearGradient>
    <linearGradient
       id="linearGradient206"
       spreadMethod="pad"
       gradientTransform="matrix(63.380939,0,0,-63.380939,1018.9069,553.78967)"
       gradientUnits="userSpaceOnUse"
       y2="0"
       x2="1"
       y1="0"
       x1="0">
      <stop
         id="stop200"
         offset="0"
         style="stop-opacity:1;stop-color:#f69635" />
      <stop
         id="stop202"
         offset="0.2703"
         style="stop-opacity:1;stop-color:#f69635" />
      <stop
         id="stop204"
         offset="1"
         style="stop-opacity:1;stop-color:#f69635" />
    </linearGradient>
    <linearGradient
       id="gradient-1"
       spreadMethod="pad"
       gradientTransform="matrix(63.380913,2.3e-5,2.3e-5,-63.380913,1018.8797,568.72421)"
       gradientUnits="userSpaceOnUse"
       y2="0"
       x2="1"
       y1="0"
       x1="0">
      <stop
         id="stop-1"
         offset="0"
         style="stop-opacity:1;stop-color:#f69635" />
      <stop
         id="stop-2"
         offset="0.2703"
         style="stop-opacity:1;stop-color:#f69635" />
      <stop
         id="stop-3"
         offset="1"
         style="stop-opacity:1;stop-color:#f69635" />
    </linearGradient>
    <linearGradient
       id="linearGradient248"
       spreadMethod="pad"
       gradientTransform="matrix(423.15189,-160.69058,-160.69058,-423.15189,846.50958,1181.7317)"
       gradientUnits="userSpaceOnUse"
       y2="0"
       x2="1"
       y1="0"
       x1="0">
      <stop
         id="stop244"
         offset="0"
         style="stop-opacity:1;stop-color:#af4f39" />
      <stop
         id="stop246"
         offset="1"
         style="stop-opacity:1;stop-color:#f69635" />
    </linearGradient>
    <linearGradient
       id="linearGradient268"
       spreadMethod="pad"
       gradientTransform="matrix(16.421991,697.93463,697.93463,-16.421991,833.66217,771.6582)"
       gradientUnits="userSpaceOnUse"
       y2="0"
       x2="1"
       y1="0"
       x1="0">
      <stop
         id="stop264"
         offset="0"
         style="stop-opacity:1;stop-color:#af4f39" />
      <stop
         id="stop266"
         offset="1"
         style="stop-opacity:1;stop-color:#f69635" />
    </linearGradient>
    <linearGradient
       id="linearGradient288"
       spreadMethod="pad"
       gradientTransform="matrix(-313.76822,251.94771,251.94771,313.76822,1249.4143,722.79669)"
       gradientUnits="userSpaceOnUse"
       y2="0"
       x2="1"
       y1="0"
       x1="0">
      <stop
         id="stop284"
         offset="0"
         style="stop-opacity:1;stop-color:#af4f39" />
      <stop
         id="stop286"
         offset="1"
         style="stop-opacity:1;stop-color:#f69635" />
    </linearGradient>
  </defs>
  <g
     inkscape:label="Layer 1"
     inkscape:groupmode="layer"
     id="layer1"
     transform="translate(-38.350302,-2.0209958)">
    <path
       style="fill:none;stroke:none;stroke-width:0.264583px;stroke-linecap:butt;stroke-linejoin:miter;stroke-opacity:1"
       d="M 43.873279,79.123084 V 161.20872 L 123.94379,219.49747 204.0169,160.1073 V 58.767651 l -66.50632,-42.54386 c 0.75653,60.126332 -49.315872,89.964359 -93.637301,62.899293 z"
       id="path1463"
       sodipodi:nodetypes="ccccccc"
       inkscape:export-filename="/Users/ndmitchell/fbsource/fbcode/hornfish/icon.png"
       inkscape:export-xdpi="119.59731"
       inkscape:export-ydpi="119.59731" />
    <g
       id="g240"
       transform="matrix(0.236743,0,0,-0.26230554,-112.79803,401.06143)"
       inkscape:export-filename="/Users/ndmitchell/fbsource/fbcode/hornfish/icon.png"
       inkscape:export-xdpi="119.59731"
       inkscape:export-ydpi="119.59731">
      <g
         id="g242">
        <path
           id="path250"
           style="fill:url(#linearGradient248);stroke:none"
           d="m 1338.223,918.601 c -177.356,-41.934 -375.881,9.331 -397.845,197.825 v 0 c 49.982,28.485 64.585,93.979 102.447,120.527 v 0 l -4.829,54.949 c -2.181,-8.408 -4.513,-14.894 -4.513,-14.894 v 0 c 0,0 -26.421,-21.777 -47.031,-33.441 v 0 c -28.55,-26.229 -39.432,-66.453 -61.807,-94.49 v 0 c -15.105,-18.928 -35.448,-32.302 -69.999,-32.068 v 0 l 29.545,-55.79 -29.545,19.829 24.88,-57.154 -24.88,27.994 c 2.694,-116.969 63.5,-255.004 185.123,-336.735 v 0 l 63.791,36.824 134.327,77.556 41.7,24.075 81.964,47.321 v 23.772"
           sodipodi:nodetypes="csssccccssssscccccscccccc" />
      </g>
    </g>
    <g
       id="g260"
       transform="matrix(0.236743,0,0,-0.26230554,-112.79803,401.06143)"
       inkscape:export-filename="/Users/ndmitchell/fbsource/fbcode/hornfish/icon.png"
       inkscape:export-xdpi="119.59731"
       inkscape:export-ydpi="119.59731">
      <g
         id="g262">
        <path
           id="path270"
           style="fill:url(#linearGradient268);stroke:none"
           d="m 1018.984,1489.261 c 2.741,-13.949 4.176,-28.355 4.176,-43.087 v 0 c 0,-38.106 -9.589,-74.01 -26.467,-105.444 v 0 c 5.039,16.598 7.757,34.199 7.757,52.43 v 0 c 0,34.527 -9.728,66.813 -26.595,94.283 v 0 c -4.094,6.683 -8.608,13.063 -13.507,19.14 v 0 l -20.47,-11.827 c 5.039,-5.961 9.658,-12.306 13.775,-18.977 v 0 c 14.883,-24.029 23.469,-52.338 23.469,-82.619 v 0 c 0,-19.163 -3.441,-37.535 -9.74,-54.541 v 0 c 0.139,2.46 0.209,4.945 0.209,7.441 v 0 c 0,43.729 -21.66,82.49 -54.81,106.122 v 0 c -7.325,5.226 -15.221,9.704 -23.573,13.32 v 0 L 866.357,1450 c 9.821,-2.356 19.118,-6.077 27.679,-10.953 v 0 c 32.357,-18.383 54.227,-53.177 54.227,-92.987 v 0 c 0,-58.939 -47.94,-106.879 -106.879,-106.879 v 0 c -58.939,0 -106.88,47.94 -106.88,106.879 v 0 c 0,0.291 0,0.595 0.012,0.886 v 0 c 0.07,10.23 1.598,20.11 4.386,29.465 v 0 l -26.875,-15.515 c -0.572,-4.863 -0.852,-9.821 -0.852,-14.836 v 0 c 0,-4.129 0.199,-8.223 0.573,-12.259 v 0 c 2.869,-30.619 16.4,-58.193 36.823,-78.967 v 0 c -26.793,14.615 -48.885,36.766 -63.418,63.605 v 0 c -3.709,6.847 -6.929,13.997 -9.588,21.404 v 0 l -20.483,-11.827 c 2.835,-7.325 6.135,-14.417 9.869,-21.241 v 0 c 18.965,-34.725 49.001,-62.566 85.323,-78.781 v 0 c -32.789,7.396 -62.882,22.011 -88.496,42.097 v 0 c -8.258,6.462 -16.062,13.507 -23.329,21.065 v 0 -32.064 c 7.407,-6.393 15.198,-12.342 23.329,-17.835 v 0 c 39.366,-26.548 86.77,-42.062 137.732,-42.062 v 0 c 7.429,0 14.778,0.35 22.044,0.992 v 0 c -16.177,-4.398 -29.382,-13.11 -38.923,-28.414 v 0 c -10.906,-17.484 -1.201,-59.919 -19.304,-75.211 v 0 c 21.672,1.037 38.503,8.632 50.972,20.435 v 0 c -23.503,-109.772 -21.789,-212.405 11.186,-297.111 16.856,-36.672 0,0 16.856,-36.672 l 148.182,-85.559 9.472,-5.47 39.774,22.968 C 918.146,796.884 857.34,934.919 854.646,1051.888 v 0 l 24.88,-27.994 -24.88,57.154 29.545,-19.829 -29.545,55.79 c 36.16,-10.275 63.717,7.014 92.148,36.742 v 0 c 22.112,23.123 38.127,60.728 39.658,89.816 v 0 c 20.61,11.664 47.031,33.441 47.031,33.441 v 0 c 0,0 2.332,6.486 4.513,14.894 v 0 l -0.163,1.89 -71.385,-29.452 c 49.164,45.176 80.041,109.959 80.041,181.834 v 0 c 0,9.507 -0.538,18.896 -1.588,28.123 v 0 c -1.166,10.206 -2.951,20.226 -5.33,30.012 v 0 l -29.394,16.972 c 3.71,-10.348 6.661,-21.042 8.807,-32.02"
           sodipodi:nodetypes="csssssssssccsssssssssssccsssssssssssccsssssssssccsssssssccsssssssssssscccccscccccssssccscccsssssccc" />
      </g>
    </g>
    <g
       id="g272"
       transform="matrix(0.236743,0,0,-0.26230554,-112.79803,401.06143)"
       inkscape:export-filename="/Users/ndmitchell/fbsource/fbcode/hornfish/icon.png"
       inkscape:export-xdpi="119.59731"
       inkscape:export-ydpi="119.59731">
      <g
         id="g274">
        <g
           id="g280">
          <g
             id="g282">
            <path
               id="path290"
               style="fill:url(#linearGradient288);stroke:none"
               d="m 1103.56,751.977 134.327,77.556 C 1125.805,813.995 1031.453,842.492 960.79,929.798 v 0 c 25.895,-83.06 70.791,-145.278 142.77,-177.821" />
          </g>
        </g>
      </g>
    </g>
  </g>
</svg>
